<svg width="153" height="55" viewBox="0 0 153 55" fill="none" xmlns="http://www.w3.org/2000/svg">
<path d="M26.7733 20.5H33.5233V43.225C33.5233 44.935 33.1783 46.465 32.4883 47.815C31.8133 49.18 30.8833 50.3425 29.6983 51.3025C28.5133 52.2625 27.1483 52.99 25.6033 53.485C24.0733 53.995 22.4533 54.25 20.7433 54.25C19.1533 54.25 17.6308 53.9425 16.1758 53.3275C14.7208 52.7275 13.4233 51.8875 12.2833 50.8075C11.1433 49.7275 10.2433 48.475 9.5833 47.05L15.7483 44.26C16.0633 44.935 16.4758 45.505 16.9858 45.97C17.4958 46.45 18.0733 46.8175 18.7183 47.0725C19.3633 47.3275 20.0383 47.455 20.7433 47.455C21.5233 47.455 22.2733 47.3725 22.9933 47.2075C23.7133 47.0425 24.3583 46.7875 24.9283 46.4425C25.4983 46.0975 25.9483 45.655 26.2783 45.115C26.6083 44.59 26.7733 43.96 26.7733 43.225V41.02C26.0983 41.785 25.2958 42.4075 24.3658 42.8875C23.4508 43.3525 22.3933 43.585 21.1933 43.585C19.5583 43.585 18.0283 43.2775 16.6033 42.6625C15.1783 42.0475 13.9183 41.2 12.8233 40.12C11.7433 39.025 10.8958 37.765 10.2808 36.34C9.6658 34.915 9.3583 33.385 9.3583 31.75C9.3583 30.115 9.6658 28.585 10.2808 27.16C10.8958 25.735 11.7433 24.4825 12.8233 23.4025C13.9183 22.3075 15.1783 21.4525 16.6033 20.8375C18.0283 20.2225 19.5583 19.915 21.1933 19.915C22.3933 19.915 23.4508 20.155 24.3658 20.635C25.2958 21.1 26.0983 21.715 26.7733 22.48V20.5ZM21.2833 37.105C22.2133 37.105 23.0608 36.865 23.8258 36.385C24.5908 35.905 25.1983 35.26 25.6483 34.45C26.0983 33.64 26.3233 32.74 26.3233 31.75C26.3233 30.76 26.0983 29.86 25.6483 29.05C25.1983 28.24 24.5908 27.595 23.8258 27.115C23.0608 26.635 22.2133 26.395 21.2833 26.395C20.3683 26.395 19.5283 26.635 18.7633 27.115C18.0133 27.595 17.4133 28.24 16.9633 29.05C16.5133 29.86 16.2883 30.76 16.2883 31.75C16.2883 32.74 16.5133 33.64 16.9633 34.45C17.4133 35.26 18.0133 35.905 18.7633 36.385C19.5283 36.865 20.3683 37.105 21.2833 37.105ZM54.417 20.5H61.167V43H54.3945L54.0795 40.975C53.5245 41.755 52.8195 42.385 51.9645 42.865C51.1245 43.345 50.142 43.585 49.017 43.585C47.337 43.585 45.762 43.27 44.292 42.64C42.837 42.01 41.5545 41.14 40.4445 40.03C39.3345 38.905 38.4645 37.615 37.8345 36.16C37.2195 34.69 36.912 33.115 36.912 31.435C36.912 29.83 37.2045 28.33 37.7895 26.935C38.3745 25.54 39.192 24.3175 40.242 23.2675C41.307 22.2025 42.5295 21.37 43.9095 20.77C45.3045 20.17 46.797 19.87 48.387 19.87C49.677 19.87 50.847 20.14 51.897 20.68C52.962 21.205 53.907 21.865 54.732 22.66L54.417 20.5ZM48.837 37.105C49.767 37.105 50.6145 36.865 51.3795 36.385C52.1445 35.905 52.752 35.26 53.202 34.45C53.652 33.64 53.877 32.74 53.877 31.75C53.877 30.76 53.652 29.86 53.202 29.05C52.752 28.24 52.1445 27.595 51.3795 27.115C50.6145 26.635 49.767 26.395 48.837 26.395C47.907 26.395 47.0595 26.635 46.2945 27.115C45.5445 27.595 44.9445 28.24 44.4945 29.05C44.0595 29.86 43.842 30.76 43.842 31.75C43.842 32.74 44.067 33.64 44.517 34.45C44.967 35.26 45.567 35.905 46.317 36.385C47.082 36.865 47.922 37.105 48.837 37.105ZM65.6839 43V20.5H72.4339V21.9175C73.1839 21.2725 74.0389 20.77 74.9989 20.41C75.9589 20.05 76.9714 19.87 78.0364 19.87C79.5364 19.87 80.9164 20.215 82.1764 20.905C83.4364 21.58 84.4564 22.4875 85.2364 23.6275C86.0314 22.4875 87.0514 21.58 88.2964 20.905C89.5564 20.215 90.9289 19.87 92.4139 19.87C94.0339 19.87 95.5039 20.2675 96.8239 21.0625C98.1439 21.8425 99.1939 22.8925 99.9739 24.2125C100.769 25.5325 101.166 27.0025 101.166 28.6225V43H94.4164V30.5125C94.4164 29.8075 94.2439 29.17 93.8989 28.6C93.5539 28.03 93.0964 27.5725 92.5264 27.2275C91.9564 26.8825 91.3189 26.71 90.6139 26.71C89.9089 26.71 89.2639 26.8825 88.6789 27.2275C88.1089 27.5725 87.6514 28.03 87.3064 28.6C86.9614 29.17 86.7889 29.8075 86.7889 30.5125V43H80.0389V30.5125C80.0389 29.8075 79.8664 29.17 79.5214 28.6C79.1914 28.03 78.7339 27.5725 78.1489 27.2275C77.5789 26.8825 76.9414 26.71 76.2364 26.71C75.5464 26.71 74.9089 26.8825 74.3239 27.2275C73.7539 27.5725 73.2964 28.03 72.9514 28.6C72.6064 29.17 72.4339 29.8075 72.4339 30.5125V43H65.6839ZM105.697 43L105.674 20.5H112.424L112.447 21.9175C113.197 21.2725 114.052 20.77 115.012 20.41C115.972 20.05 116.984 19.87 118.049 19.87C118.859 19.87 119.684 19.99 120.524 20.23L117.869 27.07C117.344 26.83 116.804 26.71 116.249 26.71C115.544 26.71 114.899 26.8825 114.314 27.2275C113.744 27.5575 113.287 28.015 112.942 28.6C112.612 29.17 112.447 29.8075 112.447 30.5125V43H105.697Z" fill="#D9D9D9"/>
<ellipse cx="136.023" cy="31.8044" rx="16.1742" ry="14.587" fill="#08AD2C"/>
<path d="M26.7733 20.5V19.5H25.7733V20.5H26.7733ZM33.5233 20.5H34.5233V19.5H33.5233V20.5ZM32.4883 47.815L31.5978 47.3598L31.5919 47.3717L32.4883 47.815ZM29.6983 51.3025L29.0688 50.5255L29.6983 51.3025ZM25.6033 53.485L25.2982 52.5326L25.2871 52.5363L25.6033 53.485ZM16.1758 53.3275L16.5651 52.4064L16.557 52.403L16.1758 53.3275ZM12.2833 50.8075L12.971 50.0815H12.971L12.2833 50.8075ZM9.5833 47.05L9.171 46.139L8.25193 46.5549L8.6759 47.4703L9.5833 47.05ZM15.7483 44.26L16.6545 43.8371L16.2365 42.9414L15.336 43.349L15.7483 44.26ZM16.9858 45.97L17.6712 45.2418L17.6654 45.2364L17.6596 45.231L16.9858 45.97ZM18.7183 47.0725L18.3506 48.0025L18.7183 47.0725ZM22.9933 47.2075L22.7699 46.2328H22.7699L22.9933 47.2075ZM26.2783 45.115L25.4316 44.5828L25.425 44.5936L26.2783 45.115ZM26.7733 41.02H27.7733V38.3752L26.0235 40.3584L26.7733 41.02ZM24.3658 42.8875L24.8189 43.779L24.8244 43.7761L24.3658 42.8875ZM16.6033 42.6625L16.9996 41.7444H16.9996L16.6033 42.6625ZM12.8233 40.12L12.1113 40.8223L12.1211 40.832L12.8233 40.12ZM10.2808 36.34L9.36266 36.7363H9.36266L10.2808 36.34ZM10.2808 27.16L9.36266 26.7637H9.36266L10.2808 27.16ZM12.8233 23.4025L13.5304 24.1096L12.8233 23.4025ZM16.6033 20.8375L16.2071 19.9194H16.2071L16.6033 20.8375ZM24.3658 20.635L23.9013 21.5205L23.9099 21.5251L23.9186 21.5294L24.3658 20.635ZM26.7733 22.48L26.0235 23.1416L27.7733 25.1248V22.48H26.7733ZM23.8258 36.385L24.3573 37.2321L23.8258 36.385ZM25.6483 34.45L26.5225 34.9356L25.6483 34.45ZM25.6483 29.05L26.5225 28.5644V28.5644L25.6483 29.05ZM18.7633 27.115L18.2318 26.2679L18.2242 26.2727L18.7633 27.115ZM16.9633 29.05L17.8375 29.5356L16.9633 29.05ZM16.9633 34.45L17.8375 33.9644L16.9633 34.45ZM18.7633 36.385L18.2242 37.2273L18.2318 37.2321L18.7633 36.385ZM26.7733 21.5H33.5233V19.5H26.7733V21.5ZM32.5233 20.5V43.225H34.5233V20.5H32.5233ZM32.5233 43.225C32.5233 44.7972 32.2071 46.1679 31.5979 47.3599L33.3787 48.2701C34.1495 46.7621 34.5233 45.0728 34.5233 43.225H32.5233ZM31.5919 47.3717C30.9809 48.6073 30.142 49.6561 29.0688 50.5255L30.3278 52.0795C31.6246 51.0289 32.6457 49.7527 33.3847 48.2583L31.5919 47.3717ZM29.0688 50.5255C27.9862 51.4026 26.7327 52.0731 25.2982 52.5327L25.9084 54.4373C27.5639 53.9069 29.0404 53.1224 30.3278 52.0795L29.0688 50.5255ZM25.2871 52.5363C23.865 53.0103 22.3523 53.25 20.7433 53.25V55.25C22.5543 55.25 24.2816 54.9797 25.9195 54.4337L25.2871 52.5363ZM20.7433 53.25C19.2861 53.25 17.8961 52.969 16.5651 52.4064L15.7865 54.2486C17.3655 54.916 19.0205 55.25 20.7433 55.25V53.25ZM16.557 52.403C15.2153 51.8497 14.0217 51.0769 12.971 50.0815L11.5956 51.5335C12.8249 52.6981 14.2263 53.6053 15.7946 54.252L16.557 52.403ZM12.971 50.0815C11.923 49.0886 11.0975 47.9399 10.4907 46.6297L8.6759 47.4703C9.38911 49.0101 10.3636 50.3664 11.5956 51.5335L12.971 50.0815ZM9.9956 47.961L16.1606 45.171L15.336 43.349L9.171 46.139L9.9956 47.961ZM14.8421 44.6829C15.2085 45.468 15.6969 46.1481 16.312 46.709L17.6596 45.231C17.2547 44.8619 16.9181 44.402 16.6545 43.8371L14.8421 44.6829ZM16.3004 46.6982C16.9017 47.2641 17.5868 47.7005 18.3506 48.0025L19.086 46.1425C18.5599 45.9345 18.0899 45.6359 17.6712 45.2418L16.3004 46.6982ZM18.3506 48.0025C19.1147 48.3045 19.9146 48.455 20.7433 48.455V46.455C20.1621 46.455 19.612 46.3505 19.086 46.1425L18.3506 48.0025ZM20.7433 48.455C21.5943 48.455 22.4194 48.3649 23.2167 48.1822L22.7699 46.2328C22.1272 46.3801 21.4523 46.455 20.7433 46.455V48.455ZM23.2167 48.1822C24.0294 47.996 24.7756 47.7038 25.4461 47.298L24.4105 45.587C23.941 45.8712 23.3972 46.089 22.7699 46.2328L23.2167 48.1822ZM25.4461 47.298C26.1456 46.8746 26.7137 46.3203 27.1316 45.6365L25.425 44.5936C25.1829 44.9897 24.851 45.3204 24.4105 45.587L25.4461 47.298ZM27.1249 45.6472C27.5724 44.9353 27.7733 44.113 27.7733 43.225H25.7733C25.7733 43.807 25.6442 44.2447 25.4317 44.5828L27.1249 45.6472ZM27.7733 43.225V41.02H25.7733V43.225H27.7733ZM26.0235 40.3584C25.4327 41.0279 24.7297 41.5743 23.9072 41.9989L24.8244 43.7761C25.8619 43.2407 26.7639 42.5421 27.5231 41.6816L26.0235 40.3584ZM23.9128 41.996C23.1601 42.3785 22.2625 42.585 21.1933 42.585V44.585C22.5242 44.585 23.7415 44.3265 24.8189 43.779L23.9128 41.996ZM21.1933 42.585C19.6872 42.585 18.2928 42.3025 16.9996 41.7444L16.2071 43.5806C17.7638 44.2525 19.4294 44.585 21.1933 44.585V42.585ZM16.9996 41.7444C15.6874 41.1781 14.5314 40.4001 13.5255 39.408L12.1211 40.832C13.3052 41.9999 14.6692 42.917 16.2071 43.5806L16.9996 41.7444ZM13.5353 39.4178C12.5432 38.4119 11.7652 37.2559 11.1989 35.9437L9.36266 36.7363C10.0264 38.2741 10.9434 39.6381 12.1113 40.8222L13.5353 39.4178ZM11.1989 35.9437C10.6408 34.6505 10.3583 33.2561 10.3583 31.75H8.3583C8.3583 33.5139 8.69079 35.1795 9.36266 36.7363L11.1989 35.9437ZM10.3583 31.75C10.3583 30.2439 10.6408 28.8495 11.1989 27.5562L9.36266 26.7637C8.69079 28.3205 8.3583 29.9861 8.3583 31.75H10.3583ZM11.1989 27.5562C11.7647 26.2454 12.5412 25.0988 13.5304 24.1096L12.1162 22.6954C10.9454 23.8662 10.0269 25.2246 9.36266 26.7637L11.1989 27.5562ZM13.5304 24.1096C14.5358 23.1042 15.6903 22.3207 16.9996 21.7556L16.2071 19.9194C14.6663 20.5843 13.3008 21.5108 12.1162 22.6954L13.5304 24.1096ZM16.9996 21.7556C18.2928 21.1975 19.6872 20.915 21.1933 20.915V18.915C19.4294 18.915 17.7638 19.2475 16.2071 19.9194L16.9996 21.7556ZM21.1933 20.915C22.2577 20.915 23.1511 21.127 23.9013 21.5205L24.8304 19.7495C23.7505 19.183 22.5289 18.915 21.1933 18.915V20.915ZM23.9186 21.5294C24.736 21.9381 25.4351 22.4748 26.0235 23.1416L27.5231 21.8184C26.7615 20.9552 25.8557 20.2619 24.813 19.7406L23.9186 21.5294ZM27.7733 22.48V20.5H25.7733V22.48H27.7733ZM21.2833 38.105C22.3954 38.105 23.4281 37.8151 24.3573 37.2321L23.2943 35.5379C22.6935 35.9149 22.0312 36.105 21.2833 36.105V38.105ZM24.3573 37.2321C25.269 36.66 25.9928 35.8891 26.5225 34.9356L24.7741 33.9644C24.4038 34.6309 23.9126 35.15 23.2943 35.5379L24.3573 37.2321ZM26.5225 34.9356C27.0606 33.9669 27.3233 32.8979 27.3233 31.75H25.3233C25.3233 32.5821 25.136 33.3131 24.7741 33.9644L26.5225 34.9356ZM27.3233 31.75C27.3233 30.6021 27.0606 29.5331 26.5225 28.5644L24.7741 29.5356C25.136 30.1869 25.3233 30.9179 25.3233 31.75H27.3233ZM26.5225 28.5644C25.9928 27.6109 25.269 26.84 24.3573 26.2679L23.2943 27.9621C23.9126 28.35 24.4038 28.8691 24.7741 29.5356L26.5225 28.5644ZM24.3573 26.2679C23.4281 25.6849 22.3954 25.395 21.2833 25.395V27.395C22.0312 27.395 22.6935 27.5851 23.2943 27.9621L24.3573 26.2679ZM21.2833 25.395C20.1829 25.395 19.1583 25.6866 18.2318 26.2679L19.2948 27.9621C19.8983 27.5834 20.5537 27.395 21.2833 27.395V25.395ZM18.2242 26.2727C17.329 26.8457 16.6162 27.6157 16.0891 28.5644L17.8375 29.5356C18.2104 28.8643 18.6976 28.3443 19.3024 27.9573L18.2242 26.2727ZM16.0891 28.5644C15.551 29.5331 15.2883 30.6021 15.2883 31.75H17.2883C17.2883 30.9179 17.4756 30.1869 17.8375 29.5356L16.0891 28.5644ZM15.2883 31.75C15.2883 32.8979 15.551 33.9669 16.0891 34.9356L17.8375 33.9644C17.4756 33.3131 17.2883 32.5821 17.2883 31.75H15.2883ZM16.0891 34.9356C16.6162 35.8843 17.329 36.6543 18.2242 37.2273L19.3024 35.5427C18.6976 35.1557 18.2104 34.6357 17.8375 33.9644L16.0891 34.9356ZM18.2318 37.2321C19.1583 37.8134 20.1829 38.105 21.2833 38.105V36.105C20.5537 36.105 19.8983 35.9166 19.2948 35.5379L18.2318 37.2321ZM54.417 20.5V19.5H53.2606L53.4275 20.6443L54.417 20.5ZM61.167 20.5H62.167V19.5H61.167V20.5ZM61.167 43V44H62.167V43H61.167ZM54.3945 43L53.4064 43.1537L53.538 44H54.3945V43ZM54.0795 40.975L55.0676 40.8213L54.6898 38.3924L53.2647 40.3952L54.0795 40.975ZM51.9645 42.865L51.475 41.993L51.4684 41.9968L51.9645 42.865ZM44.292 42.64L43.8947 43.5577L43.8981 43.5591L44.292 42.64ZM40.4445 40.03L39.7327 40.7324L39.7374 40.7371L40.4445 40.03ZM37.8345 36.16L36.9119 36.546L36.9168 36.5573L37.8345 36.16ZM40.242 23.2675L40.9491 23.9746L40.242 23.2675ZM43.9095 20.77L43.5144 19.8514L43.5108 19.8529L43.9095 20.77ZM51.897 20.68L51.4397 21.5693L51.4472 21.5732L51.4549 21.5769L51.897 20.68ZM54.732 22.66L54.0381 23.3801L56.1435 25.4089L55.7215 22.5157L54.732 22.66ZM51.3795 36.385L51.911 37.2321L51.3795 36.385ZM53.202 34.45L54.0762 34.9356H54.0762L53.202 34.45ZM53.202 29.05L54.0762 28.5644V28.5644L53.202 29.05ZM46.2945 27.115L45.763 26.2679L45.7555 26.2727L46.2945 27.115ZM44.4945 29.05L43.6204 28.5644L43.6169 28.5706L43.6135 28.5769L44.4945 29.05ZM44.517 34.45L45.3912 33.9644L44.517 34.45ZM46.317 36.385L45.7779 37.2273L45.7855 37.2321L46.317 36.385ZM54.417 21.5H61.167V19.5H54.417V21.5ZM60.167 20.5V43H62.167V20.5H60.167ZM61.167 42H54.3945V44H61.167V42ZM55.3826 42.8463L55.0676 40.8213L53.0914 41.1287L53.4064 43.1537L55.3826 42.8463ZM53.2647 40.3952C52.7974 41.0521 52.2045 41.5834 51.475 41.993L52.454 43.737C53.4345 43.1866 54.2517 42.4579 54.8943 41.5548L53.2647 40.3952ZM51.4684 41.9968C50.8025 42.3773 49.9966 42.585 49.017 42.585V44.585C50.2874 44.585 51.4465 44.3128 52.4607 43.7332L51.4684 41.9968ZM49.017 42.585C47.4655 42.585 46.0252 42.2948 44.6859 41.7209L43.8981 43.5591C45.4988 44.2452 47.2085 44.585 49.017 44.585V42.585ZM44.6894 41.7223C43.3488 41.1419 42.1716 40.3429 41.1516 39.3229L39.7374 40.7371C40.9374 41.9371 42.3253 42.8781 43.8947 43.5577L44.6894 41.7223ZM41.1563 39.3277C40.1335 38.291 39.3332 37.1045 38.7522 35.7627L36.9168 36.5573C37.5958 38.1255 38.5355 39.519 39.7327 40.7323L41.1563 39.3277ZM38.757 35.774C38.1959 34.4329 37.912 32.9898 37.912 31.435H35.912C35.912 33.2402 36.2431 34.9471 36.912 36.546L38.757 35.774ZM37.912 31.435C37.912 29.9546 38.1811 28.5869 38.7117 27.3217L36.8673 26.5483C36.2279 28.0731 35.912 29.7054 35.912 31.435H37.912ZM38.7117 27.3217C39.2475 26.0442 39.9927 24.931 40.9491 23.9746L39.5349 22.5604C38.3913 23.704 37.5016 25.0358 36.8673 26.5483L38.7117 27.3217ZM40.9491 23.9746C41.9255 22.9982 43.0434 22.237 44.3082 21.6871L43.5108 19.8529C42.0156 20.503 40.6885 21.4068 39.5349 22.5604L40.9491 23.9746ZM44.3046 21.6886C45.569 21.1448 46.9264 20.87 48.387 20.87V18.87C46.6677 18.87 45.0401 19.1952 43.5144 19.8514L44.3046 21.6886ZM48.387 20.87C49.5329 20.87 50.5439 21.1086 51.4397 21.5693L52.3544 19.7907C51.1501 19.1714 49.8211 18.87 48.387 18.87V20.87ZM51.4549 21.5769C52.4307 22.058 53.2901 22.6592 54.0381 23.3801L55.4259 21.9399C54.5239 21.0708 53.4933 20.352 52.3392 19.7831L51.4549 21.5769ZM55.7215 22.5157L55.4065 20.3557L53.4275 20.6443L53.7425 22.8043L55.7215 22.5157ZM48.837 38.105C49.9491 38.105 50.9818 37.8151 51.911 37.2321L50.848 35.5379C50.2472 35.9149 49.5849 36.105 48.837 36.105V38.105ZM51.911 37.2321C52.8227 36.66 53.5465 35.8891 54.0762 34.9356L52.3279 33.9644C51.9575 34.6309 51.4663 35.15 50.848 35.5379L51.911 37.2321ZM54.0762 34.9356C54.6143 33.9669 54.877 32.8979 54.877 31.75H52.877C52.877 32.5821 52.6897 33.3131 52.3279 33.9644L54.0762 34.9356ZM54.877 31.75C54.877 30.6021 54.6143 29.5331 54.0762 28.5644L52.3279 29.5356C52.6897 30.1869 52.877 30.9179 52.877 31.75H54.877ZM54.0762 28.5644C53.5465 27.6109 52.8227 26.84 51.911 26.2679L50.848 27.9621C51.4663 28.35 51.9575 28.8691 52.3279 29.5356L54.0762 28.5644ZM51.911 26.2679C50.9818 25.6849 49.9491 25.395 48.837 25.395V27.395C49.5849 27.395 50.2472 27.5851 50.848 27.9621L51.911 26.2679ZM48.837 25.395C47.7249 25.395 46.6922 25.6849 45.763 26.2679L46.826 27.9621C47.4268 27.5851 48.0891 27.395 48.837 27.395V25.395ZM45.7555 26.2727C44.8602 26.8457 44.1474 27.6157 43.6204 28.5644L45.3687 29.5356C45.7416 28.8643 46.2288 28.3443 46.8336 27.9573L45.7555 26.2727ZM43.6135 28.5769C43.0945 29.5434 42.842 30.6079 42.842 31.75H44.842C44.842 30.9121 45.0246 30.1766 45.3755 29.5231L43.6135 28.5769ZM42.842 31.75C42.842 32.8979 43.1047 33.9669 43.6429 34.9356L45.3912 33.9644C45.0293 33.3131 44.842 32.5821 44.842 31.75H42.842ZM43.6429 34.9356C44.1699 35.8843 44.8827 36.6543 45.778 37.2273L46.8561 35.5427C46.2513 35.1557 45.7641 34.6357 45.3912 33.9644L43.6429 34.9356ZM45.7855 37.2321C46.712 37.8134 47.7366 38.105 48.837 38.105V36.105C48.1074 36.105 47.452 35.9166 46.8485 35.5379L45.7855 37.2321ZM65.6839 43H64.6839V44H65.6839V43ZM65.6839 20.5V19.5H64.6839V20.5H65.6839ZM72.4339 20.5H73.4339V19.5H72.4339V20.5ZM72.4339 21.9175H71.4339V24.0964L73.0859 22.6757L72.4339 21.9175ZM74.9989 20.41L74.6478 19.4737L74.9989 20.41ZM82.1764 20.905L81.6961 21.7821L81.7042 21.7865L82.1764 20.905ZM85.2364 23.6275L84.4111 24.1922L85.2286 25.3869L86.0566 24.1995L85.2364 23.6275ZM88.2964 20.905L88.773 21.7841L88.7767 21.7821L88.2964 20.905ZM96.8239 21.0625L96.3079 21.9192L96.3152 21.9234L96.8239 21.0625ZM99.9739 24.2125L99.1129 24.7212L99.1173 24.7284L99.9739 24.2125ZM101.166 43V44H102.166V43H101.166ZM94.4164 43H93.4164V44H94.4164V43ZM88.6789 27.2275L88.1709 26.3661L88.1611 26.372L88.6789 27.2275ZM86.7889 43V44H87.7889V43H86.7889ZM80.0389 43H79.0389V44H80.0389V43ZM79.5214 28.6L78.656 29.101L78.6608 29.1095L78.6659 29.1178L79.5214 28.6ZM78.1489 27.2275L77.6311 28.0831L77.6409 28.0889L78.1489 27.2275ZM74.3239 27.2275L73.8159 26.3661L73.8061 26.372L74.3239 27.2275ZM72.4339 43V44H73.4339V43H72.4339ZM66.6839 43V20.5H64.6839V43H66.6839ZM65.6839 21.5H72.4339V19.5H65.6839V21.5ZM71.4339 20.5V21.9175H73.4339V20.5H71.4339ZM73.0859 22.6757C73.7436 22.1101 74.4959 21.6666 75.35 21.3463L74.6478 19.4737C73.5818 19.8734 72.6241 20.4349 71.7818 21.1593L73.0859 22.6757ZM75.35 21.3463C76.1934 21.0301 77.0866 20.87 78.0364 20.87V18.87C76.8562 18.87 75.7244 19.0699 74.6478 19.4737L75.35 21.3463ZM78.0364 20.87C79.3762 20.87 80.5899 21.1763 81.6961 21.7821L82.6567 20.0279C81.2429 19.2537 79.6966 18.87 78.0364 18.87V20.87ZM81.7042 21.7865C82.8279 22.3885 83.7249 23.1893 84.4111 24.1922L86.0617 23.0628C85.1879 21.7857 84.0449 20.7715 82.6486 20.0235L81.7042 21.7865ZM86.0566 24.1995C86.7608 23.1897 87.6622 22.3864 88.773 21.7841L87.8198 20.0259C86.4406 20.7736 85.3019 21.7853 84.4161 23.0555L86.0566 24.1995ZM88.7767 21.7821C89.8844 21.1755 91.0909 20.87 92.4139 20.87V18.87C90.7669 18.87 89.2284 19.2545 87.8161 20.0279L88.7767 21.7821ZM92.4139 20.87C93.8618 20.87 95.1518 21.2228 96.308 21.9191L97.3398 20.2059C95.8559 19.3122 94.206 18.87 92.4139 18.87V20.87ZM96.3152 21.9234C97.4899 22.6176 98.4188 23.5465 99.113 24.7212L100.835 23.7038C99.969 22.2385 98.7978 21.0674 97.3326 20.2016L96.3152 21.9234ZM99.1173 24.7284C99.8136 25.8845 100.166 27.1746 100.166 28.6225H102.166C102.166 26.8304 101.724 25.1805 100.831 23.6966L99.1173 24.7284ZM100.166 28.6225V43H102.166V28.6225H100.166ZM101.166 42H94.4164V44H101.166V42ZM95.4164 43V30.5125H93.4164V43H95.4164ZM95.4164 30.5125C95.4164 29.636 95.1995 28.8176 94.7544 28.0822L93.0434 29.1178C93.2883 29.5224 93.4164 29.979 93.4164 30.5125H95.4164ZM94.7544 28.0822C94.3258 27.374 93.7524 26.8006 93.0442 26.372L92.0086 28.083C92.4404 28.3444 92.782 28.686 93.0434 29.1178L94.7544 28.0822ZM93.0442 26.372C92.3088 25.9269 91.4904 25.71 90.6139 25.71V27.71C91.1474 27.71 91.604 27.8381 92.0086 28.083L93.0442 26.372ZM90.6139 25.71C89.7373 25.71 88.9158 25.9268 88.1709 26.3661L89.1869 28.0889C89.612 27.8382 90.0805 27.71 90.6139 27.71V25.71ZM88.1611 26.372C87.4529 26.8006 86.8795 27.374 86.4509 28.0822L88.1619 29.1178C88.4232 28.686 88.7649 28.3444 89.1967 28.083L88.1611 26.372ZM86.4509 28.0822C86.0058 28.8176 85.7889 29.636 85.7889 30.5125H87.7889C87.7889 29.979 87.917 29.5224 88.1619 29.1178L86.4509 28.0822ZM85.7889 30.5125V43H87.7889V30.5125H85.7889ZM86.7889 42H80.0389V44H86.7889V42ZM81.0389 43V30.5125H79.0389V43H81.0389ZM81.0389 30.5125C81.0389 29.636 80.822 28.8176 80.3769 28.0822L78.6659 29.1178C78.9108 29.5224 79.0389 29.979 79.0389 30.5125H81.0389ZM80.3868 28.099C79.9679 27.3753 79.3852 26.7957 78.6569 26.3661L77.6409 28.0889C78.0826 28.3493 78.4149 28.6847 78.656 29.101L80.3868 28.099ZM78.6667 26.372C77.9313 25.9269 77.1129 25.71 76.2364 25.71V27.71C76.7699 27.71 77.2265 27.8381 77.6311 28.083L78.6667 26.372ZM76.2364 25.71C75.3707 25.71 74.5574 25.9289 73.8159 26.3661L74.8319 28.0889C75.2604 27.8361 75.7221 27.71 76.2364 27.71V25.71ZM73.8061 26.372C73.0979 26.8006 72.5245 27.374 72.0959 28.0822L73.8069 29.1178C74.0682 28.686 74.4099 28.3444 74.8417 28.083L73.8061 26.372ZM72.0959 28.0822C71.6508 28.8176 71.4339 29.636 71.4339 30.5125H73.4339C73.4339 29.979 73.562 29.5224 73.8069 29.1178L72.0959 28.0822ZM71.4339 30.5125V43H73.4339V30.5125H71.4339ZM72.4339 42H65.6839V44H72.4339V42ZM105.697 43L104.697 43.001L104.698 44H105.697V43ZM105.674 20.5V19.5H104.673L104.674 20.501L105.674 20.5ZM112.424 20.5L113.424 20.4841L113.408 19.5H112.424V20.5ZM112.447 21.9175L111.447 21.9334L111.481 24.0672L113.099 22.6757L112.447 21.9175ZM115.012 20.41L114.66 19.4737L115.012 20.41ZM120.524 20.23L121.456 20.5919L121.853 19.5697L120.799 19.2685L120.524 20.23ZM117.869 27.07L117.453 27.9795L118.418 28.4203L118.801 27.4319L117.869 27.07ZM114.314 27.2275L114.815 28.093L114.822 28.0889L114.314 27.2275ZM112.942 28.6L112.08 28.092L112.076 28.099L112.942 28.6ZM112.447 43V44H113.447V43H112.447ZM106.697 42.999L106.674 20.499L104.674 20.501L104.697 43.001L106.697 42.999ZM105.674 21.5H112.424V19.5H105.674V21.5ZM111.424 20.5159L111.447 21.9334L113.446 21.9016L113.424 20.4841L111.424 20.5159ZM113.099 22.6757C113.756 22.1101 114.509 21.6666 115.363 21.3463L114.66 19.4737C113.595 19.8734 112.637 20.4349 111.795 21.1593L113.099 22.6757ZM115.363 21.3463C116.206 21.0301 117.099 20.87 118.049 20.87V18.87C116.869 18.87 115.737 19.0699 114.66 19.4737L115.363 21.3463ZM118.049 20.87C118.759 20.87 119.492 20.9751 120.249 21.1915L120.799 19.2685C119.876 19.0049 118.959 18.87 118.049 18.87V20.87ZM119.592 19.8681L116.937 26.7081L118.801 27.4319L121.456 20.5919L119.592 19.8681ZM118.285 26.1605C117.635 25.8633 116.953 25.71 116.249 25.71V27.71C116.655 27.71 117.053 27.7967 117.453 27.9795L118.285 26.1605ZM116.249 25.71C115.373 25.71 114.551 25.9268 113.806 26.3661L114.822 28.0889C115.247 27.8382 115.716 27.71 116.249 27.71V25.71ZM113.813 26.3621C113.089 26.781 112.51 27.3637 112.08 28.092L113.803 29.108C114.063 28.6663 114.399 28.334 114.815 28.0929L113.813 26.3621ZM112.076 28.099C111.652 28.832 111.447 29.6444 111.447 30.5125H113.447C113.447 29.9706 113.571 29.508 113.807 29.101L112.076 28.099ZM111.447 30.5125V43H113.447V30.5125H111.447ZM112.447 42H105.697V44H112.447V42Z" fill="black"/>
</svg>
